<svg xmlns="http://www.w3.org/2000/svg" viewBox="0 0 720 520">
  <rect width="720" height="520" rx="24" fill="#ffffff"/>
  <text x="360" y="46" text-anchor="middle" font-family="Inter,Arial" font-size="26" font-weight="900" fill="#294d78">Representative Spatial Reasoning Results</text>
  <g transform="translate(360,275)" fill="none" stroke="#d8e4ef">
    <circle r="70"/><circle r="120"/><circle r="170"/>
    <g stroke="#d8e4ef"><line x1="0" y1="-180" x2="0" y2="180"/><line x1="-180" y1="0" x2="180" y2="0"/><line x1="-127" y1="-127" x2="127" y2="127"/><line x1="127" y1="-127" x2="-127" y2="127"/></g>
    <polygon points="0,-150 105,-105 150,0 105,105 0,145 -105,105 -150,0 -105,-105" fill="#69aed4" fill-opacity="0.22" stroke="#69aed4" stroke-width="4"/>
    <polygon points="0,-105 75,-75 112,0 70,70 0,95 -70,70 -104,0 -75,-75" fill="#294d78" fill-opacity="0.18" stroke="#294d78" stroke-width="4"/>
  </g>
  <g font-family="Inter,Arial" font-size="16" font-weight="750" fill="#334155">
    <text x="360" y="80" text-anchor="middle">Obj. Cnt.</text><text x="580" y="174">Abs. Dist.</text><text x="600" y="280">Obj. Size</text><text x="560" y="405">Room Size</text><text x="360" y="490" text-anchor="middle">Route Plan</text><text x="90" y="405">Rel. Dir.</text><text x="70" y="280">Depth</text><text x="92" y="174">Multi-view</text>
  </g>
</svg>
