<svg xmlns="http://www.w3.org/2000/svg" viewBox="0 0 720 520">
  <rect width="720" height="520" rx="24" fill="#ffffff"/>
  <text x="360" y="46" text-anchor="middle" font-family="Inter,Arial" font-size="26" font-weight="900" fill="#294d78">Task-Aligned Tool Distribution</text>
  <g font-family="Inter,Arial" font-weight="800">
    <text x="190" y="96" text-anchor="middle" fill="#122238">Depth / Distance / Size</text>
    <text x="530" y="96" text-anchor="middle" fill="#122238">Spatial Relation / Direction</text>
  </g>
  <g transform="translate(70,130)">
    <line x1="0" y1="260" x2="260" y2="260" stroke="#d8e4ef"/><line x1="0" y1="170" x2="260" y2="170" stroke="#d8e4ef"/><line x1="0" y1="80" x2="260" y2="80" stroke="#d8e4ef"/>
    <rect x="20" y="184" width="34" height="76" fill="#e3f0fa"/><rect x="62" y="85" width="34" height="175" fill="#69aed4"/><rect x="104" y="228" width="34" height="32" fill="#294d78"/>
    <rect x="170" y="220" width="34" height="40" fill="#e3f0fa"/><rect x="212" y="240" width="34" height="20" fill="#69aed4"/><rect x="254" y="42" width="34" height="218" fill="#294d78"/>
    <text x="80" y="298" text-anchor="middle" font-size="13" fill="#334155">Pi3</text><text x="228" y="298" text-anchor="middle" font-size="13" fill="#334155">Depth</text>
  </g>
  <g transform="translate(405,130)">
    <line x1="0" y1="260" x2="260" y2="260" stroke="#d8e4ef"/><line x1="0" y1="170" x2="260" y2="170" stroke="#d8e4ef"/><line x1="0" y1="80" x2="260" y2="80" stroke="#d8e4ef"/>
    <rect x="20" y="198" width="34" height="62" fill="#e3f0fa"/><rect x="62" y="92" width="34" height="168" fill="#69aed4"/><rect x="104" y="182" width="34" height="78" fill="#294d78"/>
    <rect x="170" y="236" width="34" height="24" fill="#e3f0fa"/><rect x="212" y="248" width="34" height="12" fill="#69aed4"/><rect x="254" y="110" width="34" height="150" fill="#294d78"/>
    <text x="80" y="298" text-anchor="middle" font-size="13" fill="#334155">Pi3</text><text x="228" y="298" text-anchor="middle" font-size="13" fill="#334155">Orient</text>
  </g>
</svg>
